<mxfile host="app.diagrams.net" modified="2020-10-12T19:00:59.482Z" agent="5.0 (Windows NT 10.0; Win64; x64) AppleWebKit/537.36 (KHTML, like Gecko) Chrome/86.0.4240.75 Safari/537.36" etag="v6k3GyCh_aiu2xPfgeX6" version="13.7.9" type="github">
  <diagram id="R2lEEEUBdFMjLlhIrx00" name="Page-1">
    <mxGraphModel dx="2591" dy="1323" grid="1" gridSize="10" guides="1" tooltips="1" connect="1" arrows="1" fold="1" page="1" pageScale="1" pageWidth="850" pageHeight="1100" math="0" shadow="0" extFonts="Permanent Marker^https://fonts.googleapis.com/css?family=Permanent+Marker">
      <root>
        <mxCell id="0" />
        <mxCell id="1" parent="0" />
        <mxCell id="j1hkjRLKMp85_sPKMtzT-56" style="edgeStyle=orthogonalEdgeStyle;rounded=0;orthogonalLoop=1;jettySize=auto;html=1;entryX=0;entryY=0.5;entryDx=0;entryDy=0;" edge="1" parent="1" source="j1hkjRLKMp85_sPKMtzT-1" target="j1hkjRLKMp85_sPKMtzT-38">
          <mxGeometry relative="1" as="geometry">
            <Array as="points">
              <mxPoint x="1325" y="630" />
              <mxPoint x="1325" y="645" />
            </Array>
          </mxGeometry>
        </mxCell>
        <mxCell id="j1hkjRLKMp85_sPKMtzT-31" value="" style="shape=partialRectangle;overflow=hidden;connectable=0;fillColor=none;top=0;left=0;bottom=0;right=0;" vertex="1" parent="1">
          <mxGeometry x="1050" y="590" width="30" height="30" as="geometry" />
        </mxCell>
        <mxCell id="j1hkjRLKMp85_sPKMtzT-32" value="id_pais NOT NULL" style="shape=partialRectangle;overflow=hidden;connectable=0;fillColor=none;top=0;left=0;bottom=0;right=0;align=left;spacingLeft=6;" vertex="1" parent="1">
          <mxGeometry x="1080" y="590" width="220" height="30" as="geometry" />
        </mxCell>
        <mxCell id="j1hkjRLKMp85_sPKMtzT-33" value="id_ciudad NOT NULL" style="shape=partialRectangle;overflow=hidden;connectable=0;fillColor=none;top=0;left=0;bottom=0;right=0;align=left;spacingLeft=6;" vertex="1" parent="1">
          <mxGeometry x="1080" y="620" width="220" height="30" as="geometry" />
        </mxCell>
        <mxCell id="j1hkjRLKMp85_sPKMtzT-35" value="id_direccion NOT NULL" style="shape=partialRectangle;overflow=hidden;connectable=0;fillColor=none;top=0;left=0;bottom=0;right=0;align=left;spacingLeft=6;" vertex="1" parent="1">
          <mxGeometry x="1080" y="650" width="220" height="30" as="geometry" />
        </mxCell>
        <mxCell id="j1hkjRLKMp85_sPKMtzT-54" style="edgeStyle=orthogonalEdgeStyle;rounded=0;orthogonalLoop=1;jettySize=auto;html=1;entryX=0;entryY=0.5;entryDx=0;entryDy=0;" edge="1" parent="1" target="j1hkjRLKMp85_sPKMtzT-22">
          <mxGeometry relative="1" as="geometry">
            <mxPoint x="1300" y="600" as="sourcePoint" />
            <Array as="points">
              <mxPoint x="1320" y="600" />
              <mxPoint x="1320" y="515" />
            </Array>
          </mxGeometry>
        </mxCell>
        <mxCell id="j1hkjRLKMp85_sPKMtzT-57" style="edgeStyle=orthogonalEdgeStyle;rounded=0;orthogonalLoop=1;jettySize=auto;html=1;entryX=0;entryY=0.5;entryDx=0;entryDy=0;" edge="1" parent="1" target="j1hkjRLKMp85_sPKMtzT-48">
          <mxGeometry relative="1" as="geometry">
            <mxPoint x="1340" y="710" as="targetPoint" />
            <mxPoint x="1300" y="660" as="sourcePoint" />
            <Array as="points">
              <mxPoint x="1315" y="660" />
              <mxPoint x="1315" y="745" />
            </Array>
          </mxGeometry>
        </mxCell>
        <mxCell id="j1hkjRLKMp85_sPKMtzT-77" style="edgeStyle=none;rounded=0;orthogonalLoop=1;jettySize=auto;html=1;" edge="1" parent="1" source="j1hkjRLKMp85_sPKMtzT-58" target="j1hkjRLKMp85_sPKMtzT-1">
          <mxGeometry relative="1" as="geometry" />
        </mxCell>
        <mxCell id="j1hkjRLKMp85_sPKMtzT-58" value="Compra" style="rhombus;whiteSpace=wrap;html=1;" vertex="1" parent="1">
          <mxGeometry x="1135" y="185" width="80" height="80" as="geometry" />
        </mxCell>
        <mxCell id="j1hkjRLKMp85_sPKMtzT-85" style="edgeStyle=none;rounded=0;orthogonalLoop=1;jettySize=auto;html=1;exitX=0;exitY=0.5;exitDx=0;exitDy=0;" edge="1" parent="1" source="j1hkjRLKMp85_sPKMtzT-59" target="j1hkjRLKMp85_sPKMtzT-59">
          <mxGeometry relative="1" as="geometry">
            <Array as="points">
              <mxPoint x="587" y="225" />
            </Array>
          </mxGeometry>
        </mxCell>
        <mxCell id="j1hkjRLKMp85_sPKMtzT-59" value="Venta" style="rhombus;whiteSpace=wrap;html=1;" vertex="1" parent="1">
          <mxGeometry x="657" y="185" width="80" height="80" as="geometry" />
        </mxCell>
        <mxCell id="j1hkjRLKMp85_sPKMtzT-1" value="Proveedores" style="shape=table;startSize=30;container=1;collapsible=1;childLayout=tableLayout;fixedRows=1;rowLines=0;fontStyle=1;align=center;resizeLast=1;" vertex="1" parent="1">
          <mxGeometry x="1050" y="470" width="250" height="220" as="geometry" />
        </mxCell>
        <mxCell id="j1hkjRLKMp85_sPKMtzT-2" value="" style="shape=partialRectangle;collapsible=0;dropTarget=0;pointerEvents=0;fillColor=none;points=[[0,0.5],[1,0.5]];portConstraint=eastwest;top=0;left=0;right=0;bottom=1;" vertex="1" parent="j1hkjRLKMp85_sPKMtzT-1">
          <mxGeometry y="30" width="250" height="30" as="geometry" />
        </mxCell>
        <mxCell id="j1hkjRLKMp85_sPKMtzT-3" value="PK" style="shape=partialRectangle;overflow=hidden;connectable=0;fillColor=none;top=0;left=0;bottom=0;right=0;fontStyle=1;" vertex="1" parent="j1hkjRLKMp85_sPKMtzT-2">
          <mxGeometry width="30" height="30" as="geometry" />
        </mxCell>
        <mxCell id="j1hkjRLKMp85_sPKMtzT-4" value="id_proveedor int NOT NULL " style="shape=partialRectangle;overflow=hidden;connectable=0;fillColor=none;top=0;left=0;bottom=0;right=0;align=left;spacingLeft=6;fontStyle=5;" vertex="1" parent="j1hkjRLKMp85_sPKMtzT-2">
          <mxGeometry x="30" width="220" height="30" as="geometry" />
        </mxCell>
        <mxCell id="j1hkjRLKMp85_sPKMtzT-5" value="" style="shape=partialRectangle;collapsible=0;dropTarget=0;pointerEvents=0;fillColor=none;points=[[0,0.5],[1,0.5]];portConstraint=eastwest;top=0;left=0;right=0;bottom=0;" vertex="1" parent="j1hkjRLKMp85_sPKMtzT-1">
          <mxGeometry y="60" width="250" height="30" as="geometry" />
        </mxCell>
        <mxCell id="j1hkjRLKMp85_sPKMtzT-6" value="" style="shape=partialRectangle;overflow=hidden;connectable=0;fillColor=none;top=0;left=0;bottom=0;right=0;" vertex="1" parent="j1hkjRLKMp85_sPKMtzT-5">
          <mxGeometry width="30" height="30" as="geometry" />
        </mxCell>
        <mxCell id="j1hkjRLKMp85_sPKMtzT-7" value="nombre_proveedor varchar NOT NULL" style="shape=partialRectangle;overflow=hidden;connectable=0;fillColor=none;top=0;left=0;bottom=0;right=0;align=left;spacingLeft=6;" vertex="1" parent="j1hkjRLKMp85_sPKMtzT-5">
          <mxGeometry x="30" width="220" height="30" as="geometry" />
        </mxCell>
        <mxCell id="j1hkjRLKMp85_sPKMtzT-8" value="" style="shape=partialRectangle;collapsible=0;dropTarget=0;pointerEvents=0;fillColor=none;points=[[0,0.5],[1,0.5]];portConstraint=eastwest;top=0;left=0;right=0;bottom=0;" vertex="1" parent="j1hkjRLKMp85_sPKMtzT-1">
          <mxGeometry y="90" width="250" height="30" as="geometry" />
        </mxCell>
        <mxCell id="j1hkjRLKMp85_sPKMtzT-9" value="" style="shape=partialRectangle;overflow=hidden;connectable=0;fillColor=none;top=0;left=0;bottom=0;right=0;" vertex="1" parent="j1hkjRLKMp85_sPKMtzT-8">
          <mxGeometry width="30" height="30" as="geometry" />
        </mxCell>
        <mxCell id="j1hkjRLKMp85_sPKMtzT-10" value="nombre_contacto varchar NOT NULL" style="shape=partialRectangle;overflow=hidden;connectable=0;fillColor=none;top=0;left=0;bottom=0;right=0;align=left;spacingLeft=6;" vertex="1" parent="j1hkjRLKMp85_sPKMtzT-8">
          <mxGeometry x="30" width="220" height="30" as="geometry" />
        </mxCell>
        <mxCell id="j1hkjRLKMp85_sPKMtzT-21" value="Paises" style="shape=table;startSize=30;container=1;collapsible=1;childLayout=tableLayout;fixedRows=1;rowLines=0;fontStyle=1;align=center;resizeLast=1;" vertex="1" parent="1">
          <mxGeometry x="1350" y="470" width="250" height="120" as="geometry" />
        </mxCell>
        <mxCell id="j1hkjRLKMp85_sPKMtzT-22" value="" style="shape=partialRectangle;collapsible=0;dropTarget=0;pointerEvents=0;fillColor=none;points=[[0,0.5],[1,0.5]];portConstraint=eastwest;top=0;left=0;right=0;bottom=1;" vertex="1" parent="j1hkjRLKMp85_sPKMtzT-21">
          <mxGeometry y="30" width="250" height="30" as="geometry" />
        </mxCell>
        <mxCell id="j1hkjRLKMp85_sPKMtzT-23" value="PK" style="shape=partialRectangle;overflow=hidden;connectable=0;fillColor=none;top=0;left=0;bottom=0;right=0;fontStyle=1;" vertex="1" parent="j1hkjRLKMp85_sPKMtzT-22">
          <mxGeometry width="30" height="30" as="geometry" />
        </mxCell>
        <mxCell id="j1hkjRLKMp85_sPKMtzT-24" value="id_pais int NOT NULL " style="shape=partialRectangle;overflow=hidden;connectable=0;fillColor=none;top=0;left=0;bottom=0;right=0;align=left;spacingLeft=6;fontStyle=5;" vertex="1" parent="j1hkjRLKMp85_sPKMtzT-22">
          <mxGeometry x="30" width="220" height="30" as="geometry" />
        </mxCell>
        <mxCell id="j1hkjRLKMp85_sPKMtzT-25" value="" style="shape=partialRectangle;collapsible=0;dropTarget=0;pointerEvents=0;fillColor=none;points=[[0,0.5],[1,0.5]];portConstraint=eastwest;top=0;left=0;right=0;bottom=0;" vertex="1" parent="j1hkjRLKMp85_sPKMtzT-21">
          <mxGeometry y="60" width="250" height="30" as="geometry" />
        </mxCell>
        <mxCell id="j1hkjRLKMp85_sPKMtzT-26" value="" style="shape=partialRectangle;overflow=hidden;connectable=0;fillColor=none;top=0;left=0;bottom=0;right=0;" vertex="1" parent="j1hkjRLKMp85_sPKMtzT-25">
          <mxGeometry width="30" height="30" as="geometry" />
        </mxCell>
        <mxCell id="j1hkjRLKMp85_sPKMtzT-27" value="nombre_pais varchar(3) NOT NULL" style="shape=partialRectangle;overflow=hidden;connectable=0;fillColor=none;top=0;left=0;bottom=0;right=0;align=left;spacingLeft=6;" vertex="1" parent="j1hkjRLKMp85_sPKMtzT-25">
          <mxGeometry x="30" width="220" height="30" as="geometry" />
        </mxCell>
        <mxCell id="j1hkjRLKMp85_sPKMtzT-28" value="" style="shape=partialRectangle;collapsible=0;dropTarget=0;pointerEvents=0;fillColor=none;points=[[0,0.5],[1,0.5]];portConstraint=eastwest;top=0;left=0;right=0;bottom=0;" vertex="1" parent="j1hkjRLKMp85_sPKMtzT-21">
          <mxGeometry y="90" width="250" height="30" as="geometry" />
        </mxCell>
        <mxCell id="j1hkjRLKMp85_sPKMtzT-29" value="" style="shape=partialRectangle;overflow=hidden;connectable=0;fillColor=none;top=0;left=0;bottom=0;right=0;" vertex="1" parent="j1hkjRLKMp85_sPKMtzT-28">
          <mxGeometry width="30" height="30" as="geometry" />
        </mxCell>
        <mxCell id="j1hkjRLKMp85_sPKMtzT-30" value="tipo_moneda varchar(2) NOT NULL" style="shape=partialRectangle;overflow=hidden;connectable=0;fillColor=none;top=0;left=0;bottom=0;right=0;align=left;spacingLeft=6;" vertex="1" parent="j1hkjRLKMp85_sPKMtzT-28">
          <mxGeometry x="30" width="220" height="30" as="geometry" />
        </mxCell>
        <mxCell id="j1hkjRLKMp85_sPKMtzT-37" value="Ciudades" style="shape=table;startSize=30;container=1;collapsible=1;childLayout=tableLayout;fixedRows=1;rowLines=0;fontStyle=1;align=center;resizeLast=1;" vertex="1" parent="1">
          <mxGeometry x="1350" y="600" width="250" height="90" as="geometry" />
        </mxCell>
        <mxCell id="j1hkjRLKMp85_sPKMtzT-38" value="" style="shape=partialRectangle;collapsible=0;dropTarget=0;pointerEvents=0;fillColor=none;points=[[0,0.5],[1,0.5]];portConstraint=eastwest;top=0;left=0;right=0;bottom=1;" vertex="1" parent="j1hkjRLKMp85_sPKMtzT-37">
          <mxGeometry y="30" width="250" height="30" as="geometry" />
        </mxCell>
        <mxCell id="j1hkjRLKMp85_sPKMtzT-39" value="PK" style="shape=partialRectangle;overflow=hidden;connectable=0;fillColor=none;top=0;left=0;bottom=0;right=0;fontStyle=1;" vertex="1" parent="j1hkjRLKMp85_sPKMtzT-38">
          <mxGeometry width="30" height="30" as="geometry" />
        </mxCell>
        <mxCell id="j1hkjRLKMp85_sPKMtzT-40" value="id_ciudad int NOT NULL " style="shape=partialRectangle;overflow=hidden;connectable=0;fillColor=none;top=0;left=0;bottom=0;right=0;align=left;spacingLeft=6;fontStyle=5;" vertex="1" parent="j1hkjRLKMp85_sPKMtzT-38">
          <mxGeometry x="30" width="220" height="30" as="geometry" />
        </mxCell>
        <mxCell id="j1hkjRLKMp85_sPKMtzT-41" value="" style="shape=partialRectangle;collapsible=0;dropTarget=0;pointerEvents=0;fillColor=none;points=[[0,0.5],[1,0.5]];portConstraint=eastwest;top=0;left=0;right=0;bottom=0;" vertex="1" parent="j1hkjRLKMp85_sPKMtzT-37">
          <mxGeometry y="60" width="250" height="30" as="geometry" />
        </mxCell>
        <mxCell id="j1hkjRLKMp85_sPKMtzT-42" value="" style="shape=partialRectangle;overflow=hidden;connectable=0;fillColor=none;top=0;left=0;bottom=0;right=0;" vertex="1" parent="j1hkjRLKMp85_sPKMtzT-41">
          <mxGeometry width="30" height="30" as="geometry" />
        </mxCell>
        <mxCell id="j1hkjRLKMp85_sPKMtzT-43" value="nombre_ciudad varchar NOT NULL" style="shape=partialRectangle;overflow=hidden;connectable=0;fillColor=none;top=0;left=0;bottom=0;right=0;align=left;spacingLeft=6;" vertex="1" parent="j1hkjRLKMp85_sPKMtzT-41">
          <mxGeometry x="30" width="220" height="30" as="geometry" />
        </mxCell>
        <mxCell id="j1hkjRLKMp85_sPKMtzT-47" value="Direcciones" style="shape=table;startSize=30;container=1;collapsible=1;childLayout=tableLayout;fixedRows=1;rowLines=0;fontStyle=1;align=center;resizeLast=1;" vertex="1" parent="1">
          <mxGeometry x="1350" y="700" width="250" height="90" as="geometry" />
        </mxCell>
        <mxCell id="j1hkjRLKMp85_sPKMtzT-48" value="" style="shape=partialRectangle;collapsible=0;dropTarget=0;pointerEvents=0;fillColor=none;points=[[0,0.5],[1,0.5]];portConstraint=eastwest;top=0;left=0;right=0;bottom=1;" vertex="1" parent="j1hkjRLKMp85_sPKMtzT-47">
          <mxGeometry y="30" width="250" height="30" as="geometry" />
        </mxCell>
        <mxCell id="j1hkjRLKMp85_sPKMtzT-49" value="PK" style="shape=partialRectangle;overflow=hidden;connectable=0;fillColor=none;top=0;left=0;bottom=0;right=0;fontStyle=1;" vertex="1" parent="j1hkjRLKMp85_sPKMtzT-48">
          <mxGeometry width="30" height="30" as="geometry" />
        </mxCell>
        <mxCell id="j1hkjRLKMp85_sPKMtzT-50" value="id_direccion int NOT NULL " style="shape=partialRectangle;overflow=hidden;connectable=0;fillColor=none;top=0;left=0;bottom=0;right=0;align=left;spacingLeft=6;fontStyle=5;" vertex="1" parent="j1hkjRLKMp85_sPKMtzT-48">
          <mxGeometry x="30" width="220" height="30" as="geometry" />
        </mxCell>
        <mxCell id="j1hkjRLKMp85_sPKMtzT-51" value="" style="shape=partialRectangle;collapsible=0;dropTarget=0;pointerEvents=0;fillColor=none;points=[[0,0.5],[1,0.5]];portConstraint=eastwest;top=0;left=0;right=0;bottom=0;" vertex="1" parent="j1hkjRLKMp85_sPKMtzT-47">
          <mxGeometry y="60" width="250" height="30" as="geometry" />
        </mxCell>
        <mxCell id="j1hkjRLKMp85_sPKMtzT-52" value="" style="shape=partialRectangle;overflow=hidden;connectable=0;fillColor=none;top=0;left=0;bottom=0;right=0;" vertex="1" parent="j1hkjRLKMp85_sPKMtzT-51">
          <mxGeometry width="30" height="30" as="geometry" />
        </mxCell>
        <mxCell id="j1hkjRLKMp85_sPKMtzT-53" value="direccion varchar NOT NULL" style="shape=partialRectangle;overflow=hidden;connectable=0;fillColor=none;top=0;left=0;bottom=0;right=0;align=left;spacingLeft=6;" vertex="1" parent="j1hkjRLKMp85_sPKMtzT-51">
          <mxGeometry x="30" width="220" height="30" as="geometry" />
        </mxCell>
        <mxCell id="j1hkjRLKMp85_sPKMtzT-60" value="Productos" style="shape=table;startSize=30;container=1;collapsible=1;childLayout=tableLayout;fixedRows=1;rowLines=0;fontStyle=1;align=center;resizeLast=1;" vertex="1" parent="1">
          <mxGeometry x="817" y="120" width="250" height="160" as="geometry" />
        </mxCell>
        <mxCell id="j1hkjRLKMp85_sPKMtzT-61" value="" style="shape=partialRectangle;collapsible=0;dropTarget=0;pointerEvents=0;fillColor=none;points=[[0,0.5],[1,0.5]];portConstraint=eastwest;top=0;left=0;right=0;bottom=1;" vertex="1" parent="j1hkjRLKMp85_sPKMtzT-60">
          <mxGeometry y="30" width="250" height="30" as="geometry" />
        </mxCell>
        <mxCell id="j1hkjRLKMp85_sPKMtzT-62" value="PK" style="shape=partialRectangle;overflow=hidden;connectable=0;fillColor=none;top=0;left=0;bottom=0;right=0;fontStyle=1;" vertex="1" parent="j1hkjRLKMp85_sPKMtzT-61">
          <mxGeometry width="30" height="30" as="geometry" />
        </mxCell>
        <mxCell id="j1hkjRLKMp85_sPKMtzT-63" value="id_producto int NOT NULL " style="shape=partialRectangle;overflow=hidden;connectable=0;fillColor=none;top=0;left=0;bottom=0;right=0;align=left;spacingLeft=6;fontStyle=5;" vertex="1" parent="j1hkjRLKMp85_sPKMtzT-61">
          <mxGeometry x="30" width="220" height="30" as="geometry" />
        </mxCell>
        <mxCell id="j1hkjRLKMp85_sPKMtzT-64" value="" style="shape=partialRectangle;collapsible=0;dropTarget=0;pointerEvents=0;fillColor=none;points=[[0,0.5],[1,0.5]];portConstraint=eastwest;top=0;left=0;right=0;bottom=0;" vertex="1" parent="j1hkjRLKMp85_sPKMtzT-60">
          <mxGeometry y="60" width="250" height="30" as="geometry" />
        </mxCell>
        <mxCell id="j1hkjRLKMp85_sPKMtzT-65" value="" style="shape=partialRectangle;overflow=hidden;connectable=0;fillColor=none;top=0;left=0;bottom=0;right=0;" vertex="1" parent="j1hkjRLKMp85_sPKMtzT-64">
          <mxGeometry width="30" height="30" as="geometry" />
        </mxCell>
        <mxCell id="j1hkjRLKMp85_sPKMtzT-66" value="descripcion varchar NOT NULL" style="shape=partialRectangle;overflow=hidden;connectable=0;fillColor=none;top=0;left=0;bottom=0;right=0;align=left;spacingLeft=6;" vertex="1" parent="j1hkjRLKMp85_sPKMtzT-64">
          <mxGeometry x="30" width="220" height="30" as="geometry" />
        </mxCell>
        <mxCell id="j1hkjRLKMp85_sPKMtzT-67" value="" style="shape=partialRectangle;collapsible=0;dropTarget=0;pointerEvents=0;fillColor=none;points=[[0,0.5],[1,0.5]];portConstraint=eastwest;top=0;left=0;right=0;bottom=0;" vertex="1" parent="j1hkjRLKMp85_sPKMtzT-60">
          <mxGeometry y="90" width="250" height="30" as="geometry" />
        </mxCell>
        <mxCell id="j1hkjRLKMp85_sPKMtzT-68" value="" style="shape=partialRectangle;overflow=hidden;connectable=0;fillColor=none;top=0;left=0;bottom=0;right=0;" vertex="1" parent="j1hkjRLKMp85_sPKMtzT-67">
          <mxGeometry width="30" height="30" as="geometry" />
        </mxCell>
        <mxCell id="j1hkjRLKMp85_sPKMtzT-69" value="precio_unitario decimal NOT NULL" style="shape=partialRectangle;overflow=hidden;connectable=0;fillColor=none;top=0;left=0;bottom=0;right=0;align=left;spacingLeft=6;" vertex="1" parent="j1hkjRLKMp85_sPKMtzT-67">
          <mxGeometry x="30" width="220" height="30" as="geometry" />
        </mxCell>
        <mxCell id="j1hkjRLKMp85_sPKMtzT-73" value="" style="shape=partialRectangle;collapsible=0;dropTarget=0;pointerEvents=0;fillColor=none;points=[[0,0.5],[1,0.5]];portConstraint=eastwest;top=0;left=0;right=0;bottom=0;" vertex="1" parent="j1hkjRLKMp85_sPKMtzT-60">
          <mxGeometry y="120" width="250" height="30" as="geometry" />
        </mxCell>
        <mxCell id="j1hkjRLKMp85_sPKMtzT-74" value="" style="shape=partialRectangle;overflow=hidden;connectable=0;fillColor=none;top=0;left=0;bottom=0;right=0;" vertex="1" parent="j1hkjRLKMp85_sPKMtzT-73">
          <mxGeometry width="30" height="30" as="geometry" />
        </mxCell>
        <mxCell id="j1hkjRLKMp85_sPKMtzT-75" value="inventario int NOT NULL" style="shape=partialRectangle;overflow=hidden;connectable=0;fillColor=none;top=0;left=0;bottom=0;right=0;align=left;spacingLeft=6;" vertex="1" parent="j1hkjRLKMp85_sPKMtzT-73">
          <mxGeometry x="30" width="220" height="30" as="geometry" />
        </mxCell>
        <mxCell id="j1hkjRLKMp85_sPKMtzT-76" style="edgeStyle=none;rounded=0;orthogonalLoop=1;jettySize=auto;html=1;exitX=1;exitY=0.5;exitDx=0;exitDy=0;" edge="1" parent="1" source="j1hkjRLKMp85_sPKMtzT-67" target="j1hkjRLKMp85_sPKMtzT-58">
          <mxGeometry relative="1" as="geometry" />
        </mxCell>
        <mxCell id="C-vyLk0tnHw3VtMMgP7b-23" value="Clientes" style="shape=table;startSize=30;container=1;collapsible=1;childLayout=tableLayout;fixedRows=1;rowLines=0;fontStyle=1;align=center;resizeLast=1;" parent="1" vertex="1">
          <mxGeometry x="337" y="120" width="250" height="170" as="geometry" />
        </mxCell>
        <mxCell id="C-vyLk0tnHw3VtMMgP7b-24" value="" style="shape=partialRectangle;collapsible=0;dropTarget=0;pointerEvents=0;fillColor=none;points=[[0,0.5],[1,0.5]];portConstraint=eastwest;top=0;left=0;right=0;bottom=1;" parent="C-vyLk0tnHw3VtMMgP7b-23" vertex="1">
          <mxGeometry y="30" width="250" height="30" as="geometry" />
        </mxCell>
        <mxCell id="C-vyLk0tnHw3VtMMgP7b-25" value="PK" style="shape=partialRectangle;overflow=hidden;connectable=0;fillColor=none;top=0;left=0;bottom=0;right=0;fontStyle=1;" parent="C-vyLk0tnHw3VtMMgP7b-24" vertex="1">
          <mxGeometry width="30" height="30" as="geometry" />
        </mxCell>
        <mxCell id="C-vyLk0tnHw3VtMMgP7b-26" value="id_cliente int NOT NULL " style="shape=partialRectangle;overflow=hidden;connectable=0;fillColor=none;top=0;left=0;bottom=0;right=0;align=left;spacingLeft=6;fontStyle=5;" parent="C-vyLk0tnHw3VtMMgP7b-24" vertex="1">
          <mxGeometry x="30" width="220" height="30" as="geometry" />
        </mxCell>
        <mxCell id="C-vyLk0tnHw3VtMMgP7b-27" value="" style="shape=partialRectangle;collapsible=0;dropTarget=0;pointerEvents=0;fillColor=none;points=[[0,0.5],[1,0.5]];portConstraint=eastwest;top=0;left=0;right=0;bottom=0;" parent="C-vyLk0tnHw3VtMMgP7b-23" vertex="1">
          <mxGeometry y="60" width="250" height="30" as="geometry" />
        </mxCell>
        <mxCell id="C-vyLk0tnHw3VtMMgP7b-28" value="" style="shape=partialRectangle;overflow=hidden;connectable=0;fillColor=none;top=0;left=0;bottom=0;right=0;" parent="C-vyLk0tnHw3VtMMgP7b-27" vertex="1">
          <mxGeometry width="30" height="30" as="geometry" />
        </mxCell>
        <mxCell id="C-vyLk0tnHw3VtMMgP7b-29" value="nombre_cliente varchar NOT NULL" style="shape=partialRectangle;overflow=hidden;connectable=0;fillColor=none;top=0;left=0;bottom=0;right=0;align=left;spacingLeft=6;" parent="C-vyLk0tnHw3VtMMgP7b-27" vertex="1">
          <mxGeometry x="30" width="220" height="30" as="geometry" />
        </mxCell>
        <mxCell id="j1hkjRLKMp85_sPKMtzT-79" value="" style="shape=partialRectangle;collapsible=0;dropTarget=0;pointerEvents=0;fillColor=none;points=[[0,0.5],[1,0.5]];portConstraint=eastwest;top=0;left=0;right=0;bottom=0;" vertex="1" parent="C-vyLk0tnHw3VtMMgP7b-23">
          <mxGeometry y="90" width="250" height="30" as="geometry" />
        </mxCell>
        <mxCell id="j1hkjRLKMp85_sPKMtzT-80" value="" style="shape=partialRectangle;overflow=hidden;connectable=0;fillColor=none;top=0;left=0;bottom=0;right=0;" vertex="1" parent="j1hkjRLKMp85_sPKMtzT-79">
          <mxGeometry width="30" height="30" as="geometry" />
        </mxCell>
        <mxCell id="j1hkjRLKMp85_sPKMtzT-81" value="correo varchar NOT NULL" style="shape=partialRectangle;overflow=hidden;connectable=0;fillColor=none;top=0;left=0;bottom=0;right=0;align=left;spacingLeft=6;" vertex="1" parent="j1hkjRLKMp85_sPKMtzT-79">
          <mxGeometry x="30" width="220" height="30" as="geometry" />
        </mxCell>
        <mxCell id="j1hkjRLKMp85_sPKMtzT-82" value="" style="shape=partialRectangle;collapsible=0;dropTarget=0;pointerEvents=0;fillColor=none;points=[[0,0.5],[1,0.5]];portConstraint=eastwest;top=0;left=0;right=0;bottom=0;" vertex="1" parent="C-vyLk0tnHw3VtMMgP7b-23">
          <mxGeometry y="120" width="250" height="30" as="geometry" />
        </mxCell>
        <mxCell id="j1hkjRLKMp85_sPKMtzT-83" value="" style="shape=partialRectangle;overflow=hidden;connectable=0;fillColor=none;top=0;left=0;bottom=0;right=0;" vertex="1" parent="j1hkjRLKMp85_sPKMtzT-82">
          <mxGeometry width="30" height="30" as="geometry" />
        </mxCell>
        <mxCell id="j1hkjRLKMp85_sPKMtzT-84" value="numero_telefono varchar NOT NULL" style="shape=partialRectangle;overflow=hidden;connectable=0;fillColor=none;top=0;left=0;bottom=0;right=0;align=left;spacingLeft=6;" vertex="1" parent="j1hkjRLKMp85_sPKMtzT-82">
          <mxGeometry x="30" width="220" height="30" as="geometry" />
        </mxCell>
        <mxCell id="j1hkjRLKMp85_sPKMtzT-78" style="edgeStyle=none;rounded=0;orthogonalLoop=1;jettySize=auto;html=1;exitX=1;exitY=0.5;exitDx=0;exitDy=0;entryX=0;entryY=0.5;entryDx=0;entryDy=0;" edge="1" parent="1" target="j1hkjRLKMp85_sPKMtzT-67">
          <mxGeometry relative="1" as="geometry">
            <mxPoint x="737" y="225" as="sourcePoint" />
          </mxGeometry>
        </mxCell>
      </root>
    </mxGraphModel>
  </diagram>
</mxfile>
